<svg width="480" height="423" viewBox="0 0 480 423" fill="none" xmlns="http://www.w3.org/2000/svg">
<path fill-rule="evenodd" clip-rule="evenodd" d="M20.289 203.665C20.366 203.746 20.405 203.825 20.405 203.906C20.483 203.906 20.56 203.945 20.637 204.026C22.727 206.426 25.089 208.668 27.721 210.749C30.353 212.749 33.373 213.829 36.779 213.99C36.857 213.99 36.934 214.031 37.011 214.111H37.36C37.437 214.111 37.515 214.15 37.592 214.231H38.869C39.257 214.15 39.605 214.07 39.915 213.99C41.156 213.749 42.3395 213.26 43.399 212.55C44.559 211.829 45.45 210.948 46.069 209.908L46.302 209.427L46.534 208.948C46.689 208.387 46.805 207.867 46.883 207.387C46.96 206.907 46.999 206.467 46.999 206.066C46.999 203.906 46.069 202.105 44.212 200.664C42.4805 199.172 40.517 197.995 38.405 197.182C37.6107 196.879 36.7954 196.638 35.966 196.462C35.2379 196.234 34.5021 196.034 33.76 195.862H33.528C33.45 195.782 33.373 195.742 33.296 195.742C29.5304 194.793 25.9274 193.255 22.612 191.179C19.282 189.019 16.999 185.937 15.76 181.935C15.5174 181.097 15.285 180.257 15.063 179.413C14.9041 178.5 14.7879 177.578 14.715 176.653C14.6437 176.378 14.6047 176.096 14.599 175.812V172.93C14.676 172.29 14.792 171.65 14.947 171.009C15.1874 169.375 15.5761 167.767 16.108 166.207C16.65 164.607 17.347 163.166 18.198 161.886C20.676 157.643 23.85 154.602 27.721 152.761C31.67 150.92 35.773 150 40.031 150C41.038 150 42.044 150.08 43.051 150.24C44.1384 150.32 45.2228 150.44 46.302 150.6C49.126 151.091 51.8904 151.896 54.547 153.001C57.334 154.122 59.889 155.442 62.212 156.963L55.825 171.73C53.7406 170.133 51.5256 168.727 49.205 167.529C46.883 166.327 44.367 165.728 41.657 165.728H40.727C38.947 165.967 37.283 166.808 35.734 168.248C34.186 169.609 33.412 171.09 33.412 172.69V173.411C33.489 173.651 33.605 173.891 33.76 174.132C33.915 174.692 34.186 175.212 34.573 175.693C34.96 176.172 35.386 176.613 35.85 177.013C36.702 177.733 37.94 178.414 39.567 179.054C41.192 179.614 42.896 180.174 44.677 180.735C46.147 181.135 47.579 181.535 48.973 181.935C50.367 182.255 51.528 182.576 52.457 182.896C56.792 184.497 60.044 187.177 62.212 190.94C64.379 194.621 65.502 198.543 65.579 202.704V203.305C65.579 203.786 65.541 204.267 65.463 204.746V206.066C64.999 210.229 63.683 214.19 61.515 217.952C59.425 221.714 56.599 224.596 53.038 226.597C51.7162 227.24 50.3588 227.8 48.973 228.277C47.589 228.675 46.1952 229.036 44.793 229.359C43.643 229.597 42.4792 229.757 41.309 229.838C40.1927 229.995 39.0676 230.075 37.941 230.078H36.663C32.018 229.919 27.451 228.878 22.96 226.956C18.47 224.955 14.483 222.314 11 219.033L20.289 203.665ZM236.183 155.855C229.835 159.456 224.88 164.66 221.319 171.462L221.318 171.461C220.295 173.421 219.44 175.47 218.763 177.584C218.078 179.622 217.535 181.708 217.138 183.827C216.905 184.949 216.75 186.028 216.673 187.068C216.596 188.109 216.557 189.15 216.557 190.19C216.557 197.233 218.415 204.037 222.131 210.6C225.847 217.083 230.957 222.086 237.46 225.607C239.828 226.875 242.32 227.881 244.892 228.608C247.48 229.32 250.122 229.802 252.789 230.049H254.299C254.838 230.129 255.381 230.169 255.925 230.169C263.511 230.169 270.751 228.048 277.641 223.806C284.531 219.484 289.602 213.442 292.853 205.678C293.461 204.114 293.965 202.51 294.363 200.876C294.821 199.228 295.132 197.54 295.292 195.834C295.447 195.032 295.525 194.232 295.525 193.432C295.602 192.551 295.641 191.711 295.641 190.911C295.641 184.269 294.131 177.905 291.112 171.822C288.093 165.659 283.835 160.737 278.338 157.055C275.789 155.377 273.061 154.007 270.209 152.973C267.465 151.944 264.623 151.22 261.731 150.813C260.802 150.732 259.835 150.652 258.828 150.572C257.899 150.492 256.97 150.452 256.041 150.452C249.151 150.452 242.531 152.253 236.183 155.855ZM309.328 228.306V151.83H328.838L356.709 191.088C357.429 192.252 358.088 193.454 358.683 194.69C359.387 195.904 360.045 197.146 360.657 198.412L362.051 201.534C362.515 202.574 362.98 203.574 363.444 204.534C363.371 203.688 363.255 202.847 363.096 202.014C363.019 201.214 362.941 200.373 362.864 199.492C362.706 197.855 362.59 196.214 362.515 194.57C362.435 192.851 362.396 191.129 362.399 189.407V151.83H381.792V228.306H362.399L334.296 188.808C333.522 187.847 332.786 186.727 332.09 185.447C331.386 184.07 330.727 182.668 330.116 181.244C329.666 180.236 329.202 179.236 328.722 178.243C328.363 177.271 327.975 176.31 327.561 175.362C327.948 177.843 328.258 180.364 328.49 182.925C328.722 185.486 328.832 188.048 328.838 190.609V228.306H309.328ZM416.788 151.83L391.356 228.306H411.33L415.162 214.499H443.73L447.446 228.306H467.652L441.988 151.83H416.788ZM419.46 199.732L427.008 174.4C427.315 173.289 427.587 172.168 427.821 171.038C428.137 169.89 428.408 168.729 428.633 167.557C428.71 167.397 428.75 167.277 428.75 167.197C428.75 167.037 428.788 166.877 428.866 166.717C428.943 166.236 429.021 165.796 429.098 165.396C429.253 164.916 429.369 164.476 429.446 164.076C429.524 164.476 429.601 164.916 429.679 165.396C429.756 165.797 429.872 166.236 430.027 166.717C430.269 168.044 430.54 169.365 430.84 170.679C431.216 171.923 431.603 173.164 432.001 174.4L439.55 199.732H419.46ZM274.158 198.955C274.39 198.155 274.584 197.314 274.738 196.433C274.971 195.553 275.126 194.673 275.203 193.792C275.281 193.233 275.319 192.672 275.319 192.112C275.397 191.552 275.435 191.03 275.435 190.551C275.435 190.068 275.396 189.586 275.319 189.11V187.67C274.932 184.227 273.926 180.906 272.299 177.704C270.674 174.503 268.429 172.022 265.564 170.261C264.79 169.861 264.016 169.501 263.242 169.181C262.468 168.86 261.693 168.581 260.919 168.34C260.151 168.181 259.376 168.061 258.597 167.98C257.832 167.821 257.054 167.74 256.274 167.739C252.326 167.739 248.687 169.021 245.358 171.582C242.029 174.143 239.706 177.544 238.39 181.786L238.158 182.267V182.746C237.919 183.494 237.725 184.256 237.578 185.028C237.423 185.749 237.268 186.509 237.113 187.309L236.881 188.99V191.511C236.881 191.751 236.919 192.031 236.997 192.352C237.229 196.593 238.467 200.636 240.713 204.477C243.035 208.239 246.21 210.72 250.235 211.921L251.629 212.401C252.093 212.481 252.597 212.561 253.139 212.641L254.532 212.881H255.926C260.029 212.881 263.706 211.641 266.958 209.16C270.287 206.598 272.687 203.197 274.158 198.955ZM180.157 226.385C184.415 225.424 188.363 223.663 192.002 221.102H192.003C196.493 217.74 199.938 213.419 202.338 208.136C204.738 202.853 206.054 197.371 206.287 191.688V188.687C206.287 188.206 206.248 187.726 206.17 187.247C205.861 181.803 204.506 176.521 202.106 171.398C199.706 166.277 196.338 162.155 192.003 159.034C188.639 156.492 184.805 154.694 180.739 153.751C176.713 152.79 172.609 152.19 168.429 151.95C167.268 151.869 166.068 151.83 164.829 151.83H139.745V228.306H163.551C164.791 228.306 166.03 228.266 167.267 228.186C171.602 227.946 175.899 227.347 180.157 226.385ZM159.602 211.137C159.834 211.137 160.067 211.178 160.299 211.257H161.112C161.422 211.257 161.692 211.299 161.925 211.378H165.06C165.912 211.298 166.725 211.218 167.499 211.137C169.503 210.979 171.486 210.617 173.421 210.057C175.357 209.497 177.099 208.656 178.647 207.536C181.125 205.695 182.944 203.214 184.105 200.092C185.337 196.925 185.968 193.542 185.963 190.128V189.167C185.963 188.847 185.925 188.527 185.847 188.207C185.695 185.175 184.985 182.2 183.757 179.442C182.518 176.561 180.815 174.28 178.647 172.598C177.057 171.257 175.19 170.312 173.189 169.838C171.208 169.351 169.185 169.07 167.15 168.998H159.602V211.137ZM79.692 151.829V228.305H125.098V211.137H99.55V198.171H123.589V181.843H99.55V168.517H125.098V151.829H79.692ZM362.039 354.855C361.926 355.156 361.869 355.457 361.869 355.761C361.869 356.504 362.116 357.073 362.609 357.466C363.104 357.863 363.679 358.06 364.329 358.06C364.305 358.453 364.205 358.802 364.025 359.104C363.846 359.404 363.617 359.67 363.349 359.889C363.082 360.11 362.795 360.296 362.492 360.447C362.188 360.597 361.914 360.717 361.664 360.811L363.014 362.868C363.136 362.806 363.259 362.748 363.384 362.692C363.59 362.601 363.83 362.477 364.11 362.328C364.418 362.16 364.716 361.973 365.003 361.77C365.305 361.56 365.587 361.321 365.846 361.056C366.399 360.488 366.839 359.813 367.142 359.071C367.446 358.327 367.597 357.512 367.597 356.633C367.597 356.167 367.531 355.726 367.395 355.309C367.26 354.891 367.07 354.531 366.823 354.229C366.532 353.901 366.176 353.653 365.762 353.478C365.346 353.304 364.914 353.217 364.464 353.217C364.059 353.217 363.694 353.294 363.369 353.445C363.059 353.584 362.778 353.785 362.542 354.036C362.319 354.28 362.151 354.552 362.039 354.855ZM369.706 355.761C369.706 355.458 369.763 355.156 369.873 354.855C369.986 354.552 370.155 354.28 370.379 354.036C370.606 353.793 370.879 353.593 371.204 353.445C371.531 353.295 371.894 353.217 372.3 353.217C372.75 353.217 373.183 353.304 373.597 353.478C374.014 353.653 374.367 353.901 374.658 354.229C374.908 354.531 375.098 354.891 375.232 355.309C375.366 355.727 375.434 356.168 375.434 356.633C375.443 357.469 375.288 358.298 374.979 359.071C374.675 359.813 374.234 360.487 373.681 361.056C373.422 361.321 373.139 361.561 372.836 361.77C372.55 361.976 372.252 362.162 371.943 362.328C371.663 362.478 371.423 362.601 371.218 362.692C371.156 362.72 371.095 362.748 371.034 362.777C370.971 362.807 370.91 362.837 370.848 362.868L369.5 360.811C369.747 360.719 370.02 360.597 370.325 360.447C370.629 360.296 370.915 360.11 371.185 359.889C371.453 359.668 371.679 359.407 371.858 359.104C372.039 358.802 372.14 358.454 372.162 358.06C371.54 358.071 370.934 357.861 370.443 357.466C369.953 357.073 369.706 356.504 369.706 355.762V355.761ZM104.976 295.964C105.089 295.663 105.146 295.36 105.146 295.059H105.147C105.147 294.316 104.899 293.748 104.407 293.354C103.913 292.96 103.339 292.763 102.689 292.763C102.712 292.367 102.812 292.018 102.992 291.716C103.172 291.414 103.395 291.152 103.665 290.932C103.935 290.711 104.222 290.526 104.525 290.375C104.794 290.24 105.07 290.119 105.35 290.011L104.002 287.956C103.958 287.979 103.835 288.039 103.632 288.128C103.429 288.22 103.187 288.344 102.907 288.492C102.599 288.66 102.301 288.846 102.014 289.051C101.711 289.259 101.428 289.498 101.17 289.764C100.617 290.332 100.176 291.006 99.873 291.749C99.57 292.493 99.418 293.308 99.418 294.189C99.4158 294.638 99.484 295.085 99.62 295.512C99.7421 295.907 99.9367 296.274 100.193 296.592C100.488 296.92 100.85 297.176 101.253 297.342C101.665 297.515 102.105 297.604 102.55 297.602C103.272 297.613 103.967 297.317 104.473 296.784C104.692 296.548 104.863 296.269 104.976 295.964ZM97.31 295.059C97.3052 295.702 97.0647 296.319 96.637 296.786C96.4014 297.036 96.1208 297.237 95.811 297.376C95.485 297.527 95.119 297.603 94.715 297.603C94.2701 297.605 93.8291 297.517 93.417 297.343C93.0144 297.177 92.6524 296.92 92.357 296.592C92.1 296.274 91.9054 295.907 91.784 295.512C91.6476 295.085 91.5793 294.638 91.582 294.189C91.582 293.308 91.732 292.493 92.037 291.749C92.34 291.006 92.7806 290.332 93.334 289.764C93.581 289.508 93.861 289.271 94.177 289.05C94.491 288.83 94.789 288.643 95.07 288.491C95.35 288.342 95.59 288.22 95.794 288.129L95.8574 288.1C95.9365 288.063 96.0015 288.033 96.0521 288.009C96.1071 287.983 96.1451 287.965 96.166 287.954L97.513 290.009C97.265 290.102 96.991 290.224 96.687 290.374C96.384 290.526 96.097 290.711 95.83 290.93C95.5625 291.149 95.3337 291.415 95.154 291.715C94.975 292.017 94.874 292.366 94.852 292.761C95.502 292.761 96.076 292.957 96.57 293.353C97.063 293.748 97.31 294.315 97.31 295.059ZM346.475 353.857H342.66L354.541 332.523H358.317L346.475 353.857ZM342.479 355.395C341.243 355.396 340.298 356.409 340.298 357.688C340.298 358.968 341.244 359.942 342.479 359.942C343.711 359.942 344.696 358.966 344.696 357.688C344.696 356.411 343.711 355.395 342.479 355.395ZM317.217 347.73L316.127 349.681C316.962 352.236 320.266 350.809 321.396 348.781L323.211 345.551C324.556 343.184 321.577 341.456 317.217 347.73ZM341.219 352.762C341.001 352.163 340.347 351.56 339.802 351.411L339.547 351.713C338.218 353.325 336.691 354.751 335.005 355.956C335.475 354.497 335.721 352.731 335.988 350.822C336.4 347.867 336.86 344.569 338.273 341.534L335.438 339.955C335.16 340.35 334.823 340.837 334.437 341.395C332.66 343.962 329.853 348.016 327.046 351.411C327.05 351.417 327.055 351.423 327.059 351.427L327.062 351.431C327.064 351.433 327.066 351.435 327.067 351.437C327.053 351.431 327.037 351.416 327.022 351.411L326.769 351.713C324.042 354.98 321.392 357.571 319.719 357.571C318.885 357.571 318.085 356.706 318.085 354.942V353.327C320.737 353.665 323.535 351.861 325.315 348.67L326.331 346.868C329.853 340.634 324.114 338.567 320.263 342.212L325.638 332.559H321.859L311.084 351.887C310.877 351.697 310.645 351.538 310.395 351.414L310.139 351.716C307.416 354.983 303.928 357.574 301.276 357.574C298.951 357.574 297.571 356.071 299.315 352.917L303.199 345.932C305.379 342.063 309.231 342.702 306.977 346.759L306.433 347.735H309.523L310.068 346.759C312.102 343.153 310.139 340.448 307.053 340.448C304.002 340.448 301.566 342.102 299.968 344.956L296.25 351.552C296.172 351.504 296.09 351.448 296.017 351.415L295.762 351.717C293.038 354.984 290.387 357.575 288.715 357.575C287.879 357.575 287.409 356.975 288.279 355.435L296.345 340.824H292.565L285.846 352.955C282.973 355.658 280.761 357.16 280.032 356.823C279.156 356.44 279.905 355.152 280.396 354.308L280.399 354.303L280.427 354.255L280.473 354.175L280.505 354.12L287.879 340.824H284.101L276.763 353.948C276.257 354.425 275.454 354.87 274.729 355.272C274.286 355.517 273.872 355.747 273.573 355.958C274.044 354.499 274.29 352.733 274.557 350.824L274.557 350.823L274.557 350.822L274.557 350.822C274.969 347.868 275.43 344.57 276.842 341.536L274.01 339.957C272.447 342.173 263.727 354.119 260.312 358.249C260.637 358.737 261.184 359.226 261.728 359.601C263.871 357.047 271.066 347.47 272.41 345.63C271.909 346.993 271.667 348.721 271.43 350.414C270.961 353.76 270.511 356.973 268.122 356.973C266.852 356.973 266.342 355.544 266.342 355.544L263.981 356.822C263.981 356.822 264.671 359.975 268.121 359.975C268.455 359.975 268.757 359.944 269.085 359.91L269.177 359.901C269.194 359.901 269.212 359.891 269.23 359.882C269.248 359.873 269.265 359.864 269.283 359.864C271.203 359.601 273.861 358.687 275.643 357.413C275.631 359.002 276.559 359.975 278.143 359.975C280.211 359.975 282.538 358.022 284.353 356.22C283.992 358.324 285.188 359.975 287.588 359.975C289.934 359.975 292.547 358.025 295.025 355.465C295.059 358.06 296.993 359.975 300.151 359.975C303.217 359.975 306.265 358.204 308.892 355.823L306.787 359.601H310.603L314.926 351.827V354.943C314.926 358.284 315.543 359.975 318.596 359.975C321.719 359.975 325.317 356.521 328.441 352.764C328.435 352.754 328.423 352.743 328.421 352.729C328.435 352.742 328.452 352.753 328.468 352.764C330.181 350.724 331.733 348.562 332.971 346.836C333.119 346.63 333.263 346.429 333.403 346.235C333.555 346.023 333.702 345.82 333.843 345.627C333.343 346.989 333.102 348.716 332.865 350.409C332.396 353.756 331.946 356.971 329.556 356.971C328.286 356.971 327.776 355.542 327.776 355.542L325.414 356.82C325.414 356.82 326.105 359.973 329.556 359.973C329.884 359.973 330.182 359.943 330.508 359.909L330.612 359.899C330.618 359.899 330.625 359.897 330.631 359.895C330.659 359.887 330.688 359.863 330.717 359.863C334.57 359.333 338.385 356.18 341.218 352.76L341.219 352.762ZM226.445 351.639H226.628L229.388 346.758C231.676 342.7 228.044 340.86 225.391 345.517L223.575 348.71L220.705 353.855C218.452 357.912 222.776 358.511 224.555 355.358L224.592 355.283C224.374 354.908 224.229 354.459 224.229 353.971C224.229 352.691 225.21 351.639 226.445 351.639ZM201.198 366.248C200.398 367.713 199.126 367.489 199.126 366.439C199.126 365.426 200.035 364.261 202.941 363.095L201.198 366.248ZM166.353 357.536C167.915 357.536 170.168 355.771 172.456 352.054L175.397 346.719C177.251 343.188 173.219 342.25 171.184 345.891L165.917 355.395C165.046 356.937 165.518 357.536 166.353 357.536ZM160.402 336.805C161.528 334.813 162.764 333.95 163.817 333.95C165.235 333.95 165.888 334.926 165.888 336.353C165.888 339.997 161.524 347.553 155.716 346.569H154.953L160.402 336.805ZM252.925 351.678L253.179 351.376L253.18 351.377C253.69 351.602 254.343 352.204 254.598 352.732C251.472 356.488 247.878 359.943 244.752 359.943C241.699 359.943 240.574 357.279 242.172 354.385L247.076 345.559C248.712 342.666 246.132 341.691 240.355 349.166L234.579 359.569H230.764L233.304 355.026C231.618 355.988 229.75 356.525 228.37 356.525H227.535C223.297 362.065 216.269 360.821 216.789 355.365C213.537 358.693 210.423 360.719 207.264 361.746L204.358 366.893C201.636 371.7 196.076 370.91 196.076 367.154C196.076 364.226 199.273 362.046 204.396 360.47L206.467 356.79C204.758 358.366 202.689 359.943 200.872 359.943C198.99 359.943 198.031 358.566 198.484 356.418C196.31 358.475 194.077 359.943 192.044 359.943C188.993 359.943 187.867 357.28 189.465 354.385L194.369 345.563C196.004 342.669 193.424 341.694 187.647 349.169L181.871 359.572H178.057L179.449 357.079C177.507 358.784 175.539 359.946 173.729 359.946C171.805 359.946 170.641 358.897 170.461 357.394C168.644 358.933 166.755 359.946 165.229 359.946C162.554 359.946 161.358 357.898 162.181 355.444L161.957 355.664C159.467 358.113 157.604 359.946 153.5 359.946C148.16 359.946 146.599 354.69 149.25 349.957L150.375 347.927C147.325 346.275 145.617 343.27 145.617 340.155C145.617 337.523 146.814 334.859 149.504 332.866L150.739 335.159C149.105 336.472 148.305 338.275 148.305 340.077C148.305 342.256 149.469 344.435 151.685 345.637L157.571 335.157C159.277 332.078 161.748 330.575 163.819 330.575C166.615 330.575 168.832 332.865 168.832 336.396C168.832 337.936 168.359 339.738 167.306 341.654C164.327 347.024 159.749 349.167 155.716 349.167C154.955 349.167 154.264 349.087 153.574 348.976L152.519 350.891C150.269 354.873 151.83 357.54 154.409 357.54C158.084 357.54 160.168 355.041 162.822 351.857L162.969 351.681L163.223 351.379C163.494 351.454 163.791 351.643 164.051 351.883L167.954 344.92C169.55 342.063 172.386 340.412 174.419 340.412C176.89 340.412 178.525 342.703 178.38 344.355H180.523L174.419 355.396C173.548 356.939 174.02 357.538 174.855 357.538C176.528 357.538 179.18 354.947 181.903 351.68L182.157 351.378C182.282 351.438 182.402 351.508 182.516 351.587L188.554 340.788H192.334L190.917 343.341C192.805 341.313 194.513 340.411 196.148 340.411C198.255 340.411 199.817 342.553 198.182 345.52L192.733 355.396C191.862 356.939 192.334 357.538 193.169 357.538C194.841 357.538 197.492 354.947 200.217 351.68L200.471 351.378C200.586 351.434 200.697 351.498 200.802 351.571L206.83 340.788H210.608L203.233 354.083C203.198 354.144 203.161 354.209 203.122 354.276C202.632 355.121 201.887 356.407 202.761 356.788C203.487 357.125 205.74 355.586 208.647 352.808L215.33 340.788H219.109L208.754 359.118C211.732 357.8 214.384 355.396 217.509 351.68L217.763 351.379C217.882 351.435 217.996 351.501 218.105 351.575L219.725 348.712L221.577 345.369C223.758 341.464 226.009 340.262 228.916 340.262C232.478 340.262 234.584 344.128 232.296 348.224L228.736 354.571C230.625 354.533 232.733 353.592 234.439 351.678L234.694 351.376C234.864 351.459 235.026 351.559 235.176 351.676L241.264 340.786H245.043L243.626 343.339C245.516 341.311 247.221 340.41 248.857 340.41C250.962 340.41 252.528 342.551 250.892 345.518L245.442 355.394C244.571 356.937 245.042 357.536 245.878 357.536C247.55 357.536 250.203 354.945 252.925 351.678ZM371.81 314.601C369.52 318.468 367.195 320.308 365.598 320.308C364.763 320.308 364.291 319.709 365.161 318.168L370.428 308.664C372.463 305.021 376.495 305.961 374.642 309.491H374.677L371.81 314.601ZM329.519 320.308C331.08 320.308 333.333 318.543 335.623 314.827L338.564 309.491C340.416 305.961 336.384 305.021 334.35 308.664L329.082 318.168C328.212 319.709 328.683 320.308 329.519 320.308ZM295.706 329.021C294.909 330.486 293.636 330.262 293.636 329.212C293.636 328.197 294.508 327.033 297.415 325.868L295.706 329.021ZM307.151 296.724C306.096 296.724 304.861 297.586 303.734 299.577L298.286 309.342H299.049C308.676 311.647 313.145 296.724 307.151 296.724ZM381.398 314.151L381.143 314.451C378.423 317.718 375.769 320.309 374.096 320.309C373.261 320.309 372.789 319.71 373.659 318.168L386.448 295.296H382.669L377.112 305.211C376.458 304.122 375.222 303.183 373.659 303.183C371.624 303.183 368.792 304.836 367.193 307.689L363.495 314.285L363.463 314.266L363.433 314.247L363.431 314.246L363.399 314.226C363.352 314.197 363.305 314.169 363.261 314.149L363.006 314.451C360.283 317.718 358.006 320.308 356.334 320.308C355.497 320.308 355.027 319.709 355.896 318.168L361.346 308.29C362.983 305.323 361.418 303.181 359.312 303.181C357.676 303.181 355.972 304.081 354.08 306.112L355.497 303.558H351.718L345.681 314.359C345.566 314.279 345.446 314.209 345.321 314.149L345.065 314.451C342.342 317.718 339.691 320.308 338.019 320.308C337.184 320.308 336.713 319.709 337.583 318.168L343.686 307.125H341.542C341.688 305.473 340.054 303.181 337.582 303.181C335.547 303.181 332.712 304.834 331.114 307.686L327.462 314.206L327.256 314.448C324.534 317.713 321.506 320.304 319.836 320.304C318.999 320.304 318.529 319.705 319.399 318.164L323.177 311.33C324.484 308.962 323.866 307.574 322.632 306.033L320.526 303.403C319.981 302.69 319.981 301.901 320.744 301.149L318.782 298.934C316.638 300.926 316.457 303.141 317.8 304.944L318.129 305.394L317.995 305.59C316.337 308.011 314.139 311.222 311.732 314.146C311.807 314.256 311.896 314.366 311.99 314.477C308.877 318.178 306.231 320.571 303.26 321.881L308.055 313.393H304.277L303.878 314.07C301.88 317.713 299.59 320.305 296.648 320.305C294.068 320.305 293.598 317.639 295.848 313.658L296.903 311.743C297.611 311.864 298.327 311.926 299.045 311.93C312.488 311.93 318.991 293.34 307.149 293.34C305.077 293.34 302.605 294.843 300.899 297.922L295.014 308.4C292.798 307.199 291.636 305.021 291.636 302.843C291.636 301.041 292.436 299.237 294.068 297.924L292.835 295.632C290.145 297.623 288.947 300.288 288.947 302.917C288.947 306.035 290.656 309.04 293.707 310.692L292.58 312.721C289.928 317.454 290.4 322.711 295.742 322.711C297.34 322.711 298.683 322.223 299.847 321.47L298.864 323.238C293.744 324.851 290.582 326.992 290.582 329.922C290.582 333.677 296.142 334.467 298.864 329.659L301.771 324.514C305.696 323.237 309.547 320.458 313.689 315.5C313.622 315.37 313.543 315.247 313.453 315.133C315.131 313.095 316.555 311.128 319.403 307.125L319.91 307.765C320.383 308.402 320.564 309.192 320.128 309.981L316.131 317.153C314.532 320.043 315.659 322.709 318.711 322.709C320.61 322.709 323.059 321.428 325.096 319.583C325.052 321.379 326.24 322.709 328.395 322.709C329.92 322.709 331.81 321.696 333.625 320.155C333.808 321.659 334.972 322.709 336.895 322.709C338.705 322.709 340.672 321.546 342.615 319.841L341.223 322.335H345.036L350.813 311.929C356.59 304.456 359.17 305.433 357.533 308.324L352.63 317.151C351.033 320.044 352.157 322.709 355.208 322.709C357.218 322.709 359.044 321.278 361.19 319.263C360.99 321.22 362.194 322.709 364.472 322.709C365.997 322.709 367.886 321.696 369.704 320.155C369.886 321.66 371.049 322.709 372.973 322.709C376.098 322.709 379.693 319.255 382.818 315.497C382.562 314.976 381.909 314.375 381.398 314.151ZM272.897 309.492C275.151 305.436 271.298 304.798 269.118 308.666L266.684 313.06C268.1 313.585 270.535 313.662 272.352 310.468L272.897 309.492ZM266.067 322.713C270.354 322.713 274.607 319.259 277.729 315.502C277.476 314.975 276.821 314.375 276.312 314.15L276.059 314.452C273.333 317.719 269.846 320.309 267.192 320.309C264.867 320.309 263.487 318.807 265.23 315.652L265.593 314.977C268.028 316.027 272.605 315.54 275.439 310.469L275.984 309.493C278.019 305.886 276.057 303.183 272.968 303.183C269.918 303.183 267.484 304.835 265.885 307.689L262.206 314.216C262.19 314.207 262.174 314.197 262.158 314.187C262.136 314.173 262.115 314.159 262.094 314.15L261.839 314.452C259.115 317.719 256.464 320.309 254.792 320.309C253.956 320.309 253.486 319.71 254.355 318.168L259.805 308.29C261.44 305.323 259.877 303.181 257.769 303.181C256.134 303.181 254.39 304.121 252.503 306.149L258.533 295.294H254.755L244.099 314.409C243.964 314.308 243.819 314.22 243.667 314.149L243.412 314.45C240.687 317.718 238.036 320.308 236.364 320.308C235.529 320.308 235.057 319.709 235.927 318.168L244.029 303.556H247.119L248.209 301.678H245.084L248.644 295.294H244.866L241.306 301.678H237.891L236.801 303.556H240.251L232.658 317.154C231.06 320.048 232.186 322.713 235.237 322.713C237.115 322.713 239.163 321.459 241.177 319.649L239.678 322.337H243.493L249.233 312.007C255.046 304.458 257.626 305.435 255.991 308.326L251.086 317.153C249.488 320.046 250.614 322.711 253.666 322.711C255.962 322.711 258.512 320.845 260.942 318.364C261.052 320.877 262.975 322.713 266.067 322.713ZM142.372 309.491C144.626 305.435 140.776 304.797 138.596 308.665L136.161 313.058C137.577 313.584 140.013 313.66 141.828 310.467L142.372 309.491ZM161.715 318.167L166.983 308.665C169.017 305.02 173.05 305.96 171.196 309.491L168.254 314.825C165.966 318.542 163.711 320.308 162.15 320.308C161.316 320.308 160.843 319.708 161.715 318.168V318.167ZM219.475 309.491C221.729 305.435 217.879 304.797 215.699 308.665L213.264 313.058C214.68 313.583 217.115 313.66 218.93 310.467L219.475 309.491ZM157.891 318.514C157.264 320.829 158.461 322.711 161.025 322.711C162.55 322.711 164.44 321.698 166.255 320.158C166.438 321.661 167.601 322.712 169.525 322.712C171.538 322.712 173.743 321.275 175.894 319.253C175.476 321.364 176.433 322.712 178.294 322.712C180.367 322.712 182.692 320.758 184.507 318.955C184.143 321.06 185.344 322.712 187.741 322.712C190.866 322.712 194.461 319.257 197.586 315.5C197.579 315.486 197.572 315.473 197.563 315.459C197.551 315.44 197.538 315.421 197.525 315.402C197.511 315.382 197.498 315.363 197.486 315.344C199.126 313.371 200.615 311.303 201.817 309.633C202.145 309.178 202.451 308.752 202.734 308.366C202.233 309.728 201.991 311.456 201.754 313.15V313.15C201.285 316.496 200.835 319.709 198.446 319.709C197.176 319.709 196.666 318.28 196.666 318.28L194.303 319.557C194.303 319.557 194.993 322.712 198.445 322.712C198.769 322.712 199.063 322.682 199.382 322.648L199.499 322.637C199.518 322.637 199.536 322.627 199.554 322.618C199.572 322.609 199.589 322.6 199.607 322.6C202.383 322.221 205.136 320.475 207.52 318.249C207.578 320.819 209.506 322.712 212.645 322.712C216.932 322.712 221.183 319.258 224.307 315.5C224.053 314.973 223.399 314.373 222.891 314.148L222.637 314.45C219.912 317.717 216.424 320.308 213.774 320.308C211.448 320.308 210.067 318.805 211.811 315.651L212.175 314.975C214.607 316.025 219.185 315.538 222.02 310.467L222.565 309.492C224.599 305.885 222.637 303.182 219.55 303.182C216.5 303.182 214.063 304.834 212.467 307.687L208.797 314.194C208.787 314.191 208.778 314.186 208.768 314.182C208.762 314.178 208.756 314.175 208.75 314.172L208.749 314.172L208.749 314.172C208.739 314.167 208.73 314.161 208.72 314.157C208.711 314.153 208.702 314.149 208.693 314.147L208.439 314.448C207.11 316.061 205.583 317.488 203.897 318.692C204.368 317.233 204.614 315.467 204.881 313.557C205.294 310.603 205.755 307.305 207.167 304.27L204.334 302.692C204.05 303.095 203.705 303.593 203.309 304.164L203.309 304.165C201.529 306.734 198.736 310.767 195.941 314.147C195.956 314.168 195.973 314.19 195.99 314.211C196.003 314.228 196.017 314.245 196.03 314.262L196.04 314.275L196.051 314.289L195.916 314.448C193.192 317.714 190.54 320.306 188.868 320.306C188.033 320.306 187.561 319.707 188.432 318.166L196.497 303.553H192.718L185.998 315.684C183.128 318.389 180.913 319.891 180.184 319.553C179.308 319.171 180.059 317.88 180.55 317.036C180.588 316.971 180.624 316.908 180.658 316.849L188.031 303.554H184.253L178.24 314.311L178.206 314.289C178.12 314.235 178.034 314.18 177.953 314.145L177.699 314.444C174.974 317.711 172.323 320.303 170.651 320.303C169.816 320.303 169.344 319.704 170.215 318.163L176.318 307.12H174.174C174.32 305.468 172.686 303.175 170.214 303.175C168.18 303.175 165.346 304.829 163.748 307.682L159.918 314.518C159.741 314.369 159.548 314.243 159.342 314.143L159.088 314.442C156.364 317.709 153.23 320.301 150.578 320.301C148.254 320.301 146.872 318.799 148.615 315.645L152.502 308.66C154.682 304.792 158.533 305.43 156.279 309.485L155.734 310.462H158.824L159.368 309.485C161.402 305.88 159.441 303.175 156.354 303.175C153.302 303.175 151.22 304.829 149.624 307.682L145.868 314.343C145.758 314.267 145.642 314.2 145.521 314.143L145.267 314.442C142.543 317.709 139.32 320.301 136.669 320.301C134.343 320.301 132.962 318.799 134.706 315.645L135.069 314.969C137.503 316.021 142.081 315.532 144.915 310.463L145.46 309.485C147.494 305.881 145.532 303.176 142.444 303.176C139.394 303.176 136.958 304.828 135.361 307.683L131.401 314.705C129.038 318.874 131.074 322.705 135.541 322.705C138.87 322.705 141.554 320.622 144.329 317.932C144.231 320.658 146.187 322.705 149.45 322.705C152.538 322.711 155.25 320.918 157.891 318.514ZM124.07 298.673L121.019 304.081V304.082C124.87 304.007 127.015 303.143 128.465 300.327C130.355 296.645 126.83 293.756 124.07 298.673ZM116.951 321.884C114.698 321.884 112.918 321.359 111.501 320.534C112.155 319.744 112.808 318.767 113.391 317.754L119.747 306.373L120.764 306.485C129.63 308.403 126.105 321.884 116.951 321.884ZM126.288 305.885C133.916 303.217 134.497 293.34 126.977 293.34C124.906 293.34 122.436 294.842 120.729 297.922L110.556 316.101C110.136 316.881 109.65 317.622 109.104 318.314C106.488 314.597 107.251 309.04 110.92 306.597L109.393 304.606C101.473 309.826 103.799 324.886 117.023 324.886C128.322 324.888 133.553 310.882 126.288 305.885Z" fill="white"/>
</svg>
